<?xml version="1.0" encoding="us-ascii" standalone="no"?><svg xmlns="http://www.w3.org/2000/svg" xmlns:xlink="http://www.w3.org/1999/xlink" contentStyleType="text/css" height="775px" preserveAspectRatio="none" style="width:551px;height:775px;background:#FFFFFF;" version="1.1" viewBox="0 0 551 775" width="551px" zoomAndPan="magnify"><defs/><g><ellipse cx="313.75" cy="20" fill="#222222" rx="10" ry="10" style="stroke:#222222;stroke-width:1.0;"/><rect fill="#F1F1F1" height="33.9688" rx="12.5" ry="12.5" style="stroke:#181818;stroke-width:0.5;" width="210" x="208.75" y="50"/><text fill="#000000" font-family="sans-serif" font-size="12" lengthAdjust="spacing" textLength="190" x="218.75" y="71.1387">Parse command-line arguments</text><polygon fill="#F1F1F1" points="264.25,103.9688,363.25,103.9688,375.25,115.9688,363.25,127.9688,264.25,127.9688,252.25,115.9688,264.25,103.9688" style="stroke:#181818;stroke-width:0.5;"/><text fill="#000000" font-family="sans-serif" font-size="11" lengthAdjust="spacing" textLength="99" x="264.25" y="119.7769">Valid arguments?</text><text fill="#000000" font-family="sans-serif" font-size="11" lengthAdjust="spacing" textLength="21" x="231.25" y="113.3745">yes</text><text fill="#000000" font-family="sans-serif" font-size="11" lengthAdjust="spacing" textLength="14" x="375.25" y="113.3745">no</text><rect fill="#F1F1F1" height="33.9688" rx="12.5" ry="12.5" style="stroke:#181818;stroke-width:0.5;" width="235" x="49.5" y="137.9688"/><text fill="#000000" font-family="sans-serif" font-size="12" lengthAdjust="spacing" textLength="215" x="59.5" y="159.1074">Create output directory if not exists</text><rect fill="#F1F1F1" height="33.9688" rx="12.5" ry="12.5" style="stroke:#181818;stroke-width:0.5;" width="189" x="72.5" y="191.9375"/><text fill="#000000" font-family="sans-serif" font-size="12" lengthAdjust="spacing" textLength="169" x="82.5" y="213.0762">Initialize list for output paths</text><rect fill="#F1F1F1" height="33.9688" rx="12.5" ry="12.5" style="stroke:#181818;stroke-width:0.5;" width="98" x="118" y="245.9063"/><text fill="#000000" font-family="sans-serif" font-size="12" lengthAdjust="spacing" textLength="78" x="128" y="267.0449">Read PDF file</text><rect fill="#F1F1F1" height="33.9688" rx="12.5" ry="12.5" style="stroke:#181818;stroke-width:0.5;" width="162" x="86" y="343.875"/><text fill="#000000" font-family="sans-serif" font-size="12" lengthAdjust="spacing" textLength="142" x="96" y="365.0137">Process each PDF page</text><line style="stroke:#181818;stroke-width:1.5;" x1="75.5" x2="245.5" y1="397.8438" y2="397.8438"/><rect fill="#F1F1F1" height="33.9688" rx="12.5" ry="12.5" style="stroke:#181818;stroke-width:0.5;" width="129" x="11" y="452.3281"/><text fill="#000000" font-family="sans-serif" font-size="12" lengthAdjust="spacing" textLength="109" x="21" y="473.4668">Save page as PDF</text><rect fill="#F1F1F1" height="33.9688" rx="12.5" ry="12.5" style="stroke:#181818;stroke-width:0.5;" width="155" x="168" y="417.8438"/><text fill="#000000" font-family="sans-serif" font-size="12" lengthAdjust="spacing" textLength="135" x="178" y="438.9824">Extract text from page</text><rect fill="#F1F1F1" height="33.9688" rx="12.5" ry="12.5" style="stroke:#181818;stroke-width:0.5;" width="137" x="177" y="486.8125"/><text fill="#000000" font-family="sans-serif" font-size="12" lengthAdjust="spacing" textLength="117" x="187" y="507.9512">Save text to .txt file</text><line style="stroke:#181818;stroke-width:1.5;" x1="75.5" x2="245.5" y1="540.7813" y2="540.7813"/><rect fill="#F1F1F1" height="33.9688" rx="12.5" ry="12.5" style="stroke:#181818;stroke-width:0.5;" width="160" x="87" y="560.7813"/><text fill="#000000" font-family="sans-serif" font-size="12" lengthAdjust="spacing" textLength="140" x="97" y="581.9199">Add text file path to list</text><polygon fill="#F1F1F1" points="167,299.875,179,311.875,167,323.875,155,311.875,167,299.875" style="stroke:#181818;stroke-width:0.5;"/><polygon fill="#F1F1F1" points="130.5,614.75,203.5,614.75,215.5,626.75,203.5,638.75,130.5,638.75,118.5,626.75,130.5,614.75" style="stroke:#181818;stroke-width:0.5;"/><text fill="#000000" font-family="sans-serif" font-size="11" lengthAdjust="spacing" textLength="73" x="130.5" y="630.5581">More pages?</text><rect fill="#F1F1F1" height="33.9688" rx="12.5" ry="12.5" style="stroke:#181818;stroke-width:0.5;" width="273" x="30.5" y="658.75"/><text fill="#000000" font-family="sans-serif" font-size="12" lengthAdjust="spacing" textLength="253" x="40.5" y="679.8887">Serialize list of text file paths to pickle file</text><rect fill="#F1F1F1" height="33.9688" rx="12.5" ry="12.5" style="stroke:#181818;stroke-width:0.5;" width="159" x="381" y="137.9688"/><text fill="#000000" font-family="sans-serif" font-size="12" lengthAdjust="spacing" textLength="139" x="391" y="159.1074">Print usage instructions</text><polygon fill="#F1F1F1" points="313.75,698.7188,325.75,710.7188,313.75,722.7188,301.75,710.7188,313.75,698.7188" style="stroke:#181818;stroke-width:0.5;"/><ellipse cx="313.75" cy="753.7188" fill="none" rx="11" ry="11" style="stroke:#222222;stroke-width:1.0;"/><ellipse cx="313.75" cy="753.7188" fill="#222222" rx="6" ry="6" style="stroke:#222222;stroke-width:1.0;"/><line style="stroke:#181818;stroke-width:1.0;" x1="313.75" x2="313.75" y1="30" y2="50"/><polygon fill="#181818" points="309.75,40,313.75,50,317.75,40,313.75,44" style="stroke:#181818;stroke-width:1.0;"/><line style="stroke:#181818;stroke-width:1.0;" x1="167" x2="167" y1="171.9375" y2="191.9375"/><polygon fill="#181818" points="163,181.9375,167,191.9375,171,181.9375,167,185.9375" style="stroke:#181818;stroke-width:1.0;"/><line style="stroke:#181818;stroke-width:1.0;" x1="167" x2="167" y1="225.9063" y2="245.9063"/><polygon fill="#181818" points="163,235.9063,167,245.9063,171,235.9063,167,239.9063" style="stroke:#181818;stroke-width:1.0;"/><line style="stroke:#181818;stroke-width:1.0;" x1="245.5" x2="245.5" y1="451.8125" y2="486.8125"/><polygon fill="#181818" points="241.5,476.8125,245.5,486.8125,249.5,476.8125,245.5,480.8125" style="stroke:#181818;stroke-width:1.0;"/><line style="stroke:#181818;stroke-width:1.0;" x1="75.5" x2="75.5" y1="399.3438" y2="452.3281"/><polygon fill="#181818" points="71.5,442.3281,75.5,452.3281,79.5,442.3281,75.5,446.3281" style="stroke:#181818;stroke-width:1.0;"/><line style="stroke:#181818;stroke-width:1.0;" x1="245.5" x2="245.5" y1="399.3438" y2="417.8438"/><polygon fill="#181818" points="241.5,407.8438,245.5,417.8438,249.5,407.8438,245.5,411.8438" style="stroke:#181818;stroke-width:1.0;"/><line style="stroke:#181818;stroke-width:1.0;" x1="75.5" x2="75.5" y1="486.2969" y2="540.7813"/><polygon fill="#181818" points="71.5,530.7813,75.5,540.7813,79.5,530.7813,75.5,534.7813" style="stroke:#181818;stroke-width:1.0;"/><line style="stroke:#181818;stroke-width:1.0;" x1="245.5" x2="245.5" y1="520.7813" y2="540.7813"/><polygon fill="#181818" points="241.5,530.7813,245.5,540.7813,249.5,530.7813,245.5,534.7813" style="stroke:#181818;stroke-width:1.0;"/><line style="stroke:#181818;stroke-width:1.0;" x1="167" x2="167" y1="377.8438" y2="397.8438"/><polygon fill="#181818" points="163,387.8438,167,397.8438,171,387.8438,167,391.8438" style="stroke:#181818;stroke-width:1.0;"/><line style="stroke:#181818;stroke-width:1.0;" x1="167" x2="167" y1="542.2813" y2="560.7813"/><polygon fill="#181818" points="163,550.7813,167,560.7813,171,550.7813,167,554.7813" style="stroke:#181818;stroke-width:1.0;"/><line style="stroke:#181818;stroke-width:1.0;" x1="167" x2="167" y1="323.875" y2="343.875"/><polygon fill="#181818" points="163,333.875,167,343.875,171,333.875,167,337.875" style="stroke:#181818;stroke-width:1.0;"/><line style="stroke:#181818;stroke-width:1.0;" x1="215.5" x2="349" y1="626.75" y2="626.75"/><polygon fill="#181818" points="345,479.3125,349,469.3125,353,479.3125,349,475.3125" style="stroke:#181818;stroke-width:1.0;"/><line style="stroke:#181818;stroke-width:1.0;" x1="349" x2="349" y1="311.875" y2="626.75"/><line style="stroke:#181818;stroke-width:1.0;" x1="349" x2="179" y1="311.875" y2="311.875"/><polygon fill="#181818" points="189,307.875,179,311.875,189,315.875,185,311.875" style="stroke:#181818;stroke-width:1.0;"/><line style="stroke:#181818;stroke-width:1.0;" x1="167" x2="167" y1="594.75" y2="614.75"/><polygon fill="#181818" points="163,604.75,167,614.75,171,604.75,167,608.75" style="stroke:#181818;stroke-width:1.0;"/><line style="stroke:#181818;stroke-width:1.0;" x1="167" x2="167" y1="279.875" y2="299.875"/><polygon fill="#181818" points="163,289.875,167,299.875,171,289.875,167,293.875" style="stroke:#181818;stroke-width:1.0;"/><line style="stroke:#181818;stroke-width:1.0;" x1="167" x2="167" y1="638.75" y2="658.75"/><polygon fill="#181818" points="163,648.75,167,658.75,171,648.75,167,652.75" style="stroke:#181818;stroke-width:1.0;"/><line style="stroke:#181818;stroke-width:1.0;" x1="252.25" x2="167" y1="115.9688" y2="115.9688"/><line style="stroke:#181818;stroke-width:1.0;" x1="167" x2="167" y1="115.9688" y2="137.9688"/><polygon fill="#181818" points="163,127.9688,167,137.9688,171,127.9688,167,131.9688" style="stroke:#181818;stroke-width:1.0;"/><line style="stroke:#181818;stroke-width:1.0;" x1="375.25" x2="460.5" y1="115.9688" y2="115.9688"/><line style="stroke:#181818;stroke-width:1.0;" x1="460.5" x2="460.5" y1="115.9688" y2="137.9688"/><polygon fill="#181818" points="456.5,127.9688,460.5,137.9688,464.5,127.9688,460.5,131.9688" style="stroke:#181818;stroke-width:1.0;"/><line style="stroke:#181818;stroke-width:1.0;" x1="167" x2="167" y1="692.7188" y2="710.7188"/><line style="stroke:#181818;stroke-width:1.0;" x1="167" x2="301.75" y1="710.7188" y2="710.7188"/><polygon fill="#181818" points="291.75,706.7188,301.75,710.7188,291.75,714.7188,295.75,710.7188" style="stroke:#181818;stroke-width:1.0;"/><line style="stroke:#181818;stroke-width:1.0;" x1="460.5" x2="460.5" y1="171.9375" y2="710.7188"/><line style="stroke:#181818;stroke-width:1.0;" x1="460.5" x2="325.75" y1="710.7188" y2="710.7188"/><polygon fill="#181818" points="335.75,706.7188,325.75,710.7188,335.75,714.7188,331.75,710.7188" style="stroke:#181818;stroke-width:1.0;"/><line style="stroke:#181818;stroke-width:1.0;" x1="313.75" x2="313.75" y1="83.9688" y2="103.9688"/><polygon fill="#181818" points="309.75,93.9688,313.75,103.9688,317.75,93.9688,313.75,97.9688" style="stroke:#181818;stroke-width:1.0;"/><line style="stroke:#181818;stroke-width:1.0;" x1="313.75" x2="313.75" y1="722.7188" y2="742.7188"/><polygon fill="#181818" points="309.75,732.7188,313.75,742.7188,317.75,732.7188,313.75,736.7188" style="stroke:#181818;stroke-width:1.0;"/><!--SRC=[NP5DJiGm38NtFOMNdGKSO5WWn8_40gbY9FPMuaujsZXoN9ZXz3ZjZAZO9VRdb_USOgZMDFiEjH04cIPCyMRaH81wd2TALkuQxg7zm97ZN_5-1pPGWlPCPTS0x1-Lq0XajZmRH5OA9de6dqrYG2SkLSh9ryJ6hlP3C7eHUj7hM4ORLkYTC4Btz08zZrGhIjaVy8CtEvL0fG1X61Oeut6104eUUQMSE-0NBJt0KhaD0dX4JbVm-MIAmS3ev7vKfetYLMVfcS2jLURY2e1It3owVuZnekB4agVEr9n_8U1xgCtsJNIrvzkicG-asxr8_q-fLAdCuTFlgm4Q_TVQ9CjufvmCvbBpSYgcSp2MvFjqZzmtJJ79lm00]--></g></svg>