<?xml version="1.0" encoding="us-ascii" standalone="no"?><svg xmlns="http://www.w3.org/2000/svg" xmlns:xlink="http://www.w3.org/1999/xlink" contentStyleType="text/css" height="895px" preserveAspectRatio="none" style="width:974px;height:895px;background:#FFFFFF;" version="1.1" viewBox="0 0 974 895" width="974px" zoomAndPan="magnify"><defs/><g><rect fill="#FFFFFF" height="700.3203" style="stroke:#181818;stroke-width:1.0;" width="10" x="134.5" y="98.4297"/><rect fill="#FFFFFF" height="189.9297" style="stroke:#181818;stroke-width:1.0;" width="10" x="334.5" y="127.5625"/><rect fill="#FFFFFF" height="160.7969" style="stroke:#181818;stroke-width:1.0;" width="10" x="334.5" y="346.625"/><rect fill="#FFFFFF" height="174.7969" style="stroke:#181818;stroke-width:1.0;" width="10" x="334.5" y="536.5547"/><rect fill="#FFFFFF" height="131.6641" style="stroke:#181818;stroke-width:1.0;" width="10" x="493.5" y="156.6953"/><rect fill="#FFFFFF" height="102.5313" style="stroke:#181818;stroke-width:1.0;" width="10" x="592" y="375.7578"/><rect fill="#FFFFFF" height="116.5313" style="stroke:#181818;stroke-width:1.0;" width="10" x="699" y="565.6875"/><rect fill="#FFFFFF" height="73.3984" style="stroke:#181818;stroke-width:1.0;" width="10" x="924" y="185.8281"/><rect fill="#FFFFFF" height="29.1328" style="stroke:#181818;stroke-width:1.0;" width="10" x="924" y="420.0234"/><rect fill="#FFFFFF" height="58.2656" style="stroke:#181818;stroke-width:1.0;" width="10" x="924" y="594.8203"/><rect fill="#FFFFFF" height="29.1328" style="stroke:#181818;stroke-width:1.0;" width="10" x="924" y="740.4844"/><line style="stroke:#181818;stroke-width:0.5;stroke-dasharray:5.0,5.0;" x1="27" x2="27" y1="67.2969" y2="816.75"/><line style="stroke:#181818;stroke-width:0.5;stroke-dasharray:5.0,5.0;" x1="139.5" x2="139.5" y1="67.2969" y2="816.75"/><line style="stroke:#181818;stroke-width:0.5;stroke-dasharray:5.0,5.0;" x1="339" x2="339" y1="67.2969" y2="816.75"/><line style="stroke:#181818;stroke-width:0.5;stroke-dasharray:5.0,5.0;" x1="498" x2="498" y1="67.2969" y2="816.75"/><line style="stroke:#181818;stroke-width:0.5;stroke-dasharray:5.0,5.0;" x1="597" x2="597" y1="67.2969" y2="816.75"/><line style="stroke:#181818;stroke-width:0.5;stroke-dasharray:5.0,5.0;" x1="704" x2="704" y1="67.2969" y2="816.75"/><line style="stroke:#181818;stroke-width:0.5;stroke-dasharray:5.0,5.0;" x1="928.5" x2="928.5" y1="67.2969" y2="816.75"/><rect fill="#E2E2F0" height="30.2969" rx="2.5" ry="2.5" style="stroke:#181818;stroke-width:0.5;" width="45" x="5" y="36"/><text fill="#000000" font-family="sans-serif" font-size="14" lengthAdjust="spacing" textLength="31" x="12" y="55.9951">User</text><rect fill="#E2E2F0" height="30.2969" rx="2.5" ry="2.5" style="stroke:#181818;stroke-width:0.5;" width="45" x="5" y="815.75"/><text fill="#000000" font-family="sans-serif" font-size="14" lengthAdjust="spacing" textLength="31" x="12" y="835.7451">User</text><rect fill="#E2E2F0" height="30.2969" rx="2.5" ry="2.5" style="stroke:#181818;stroke-width:0.5;" width="158" x="60.5" y="36"/><text fill="#000000" font-family="sans-serif" font-size="14" lengthAdjust="spacing" textLength="144" x="67.5" y="55.9951">Orchestrator_Script</text><rect fill="#E2E2F0" height="30.2969" rx="2.5" ry="2.5" style="stroke:#181818;stroke-width:0.5;" width="158" x="60.5" y="815.75"/><text fill="#000000" font-family="sans-serif" font-size="14" lengthAdjust="spacing" textLength="144" x="67.5" y="835.7451">Orchestrator_Script</text><rect fill="#E2E2F0" height="30.2969" rx="2.5" ry="2.5" style="stroke:#181818;stroke-width:0.5;" width="59" x="310" y="36"/><text fill="#000000" font-family="sans-serif" font-size="14" lengthAdjust="spacing" textLength="45" x="317" y="55.9951">Ganga</text><rect fill="#E2E2F0" height="30.2969" rx="2.5" ry="2.5" style="stroke:#181818;stroke-width:0.5;" width="59" x="310" y="815.75"/><text fill="#000000" font-family="sans-serif" font-size="14" lengthAdjust="spacing" textLength="45" x="317" y="835.7451">Ganga</text><text fill="#000000" font-family="sans-serif" font-size="14" lengthAdjust="spacing" textLength="61" x="465" y="63.9951">Split Job</text><ellipse cx="498.5" cy="35" fill="#E2E2F0" rx="12" ry="12" style="stroke:#181818;stroke-width:0.5;"/><line style="stroke:#181818;stroke-width:0.5;" x1="486.5" x2="510.5" y1="49" y2="49"/><text fill="#000000" font-family="sans-serif" font-size="14" lengthAdjust="spacing" textLength="61" x="465" y="828.7451">Split Job</text><ellipse cx="498.5" cy="848.0469" fill="#E2E2F0" rx="12" ry="12" style="stroke:#181818;stroke-width:0.5;"/><line style="stroke:#181818;stroke-width:0.5;" x1="486.5" x2="510.5" y1="862.0469" y2="862.0469"/><text fill="#000000" font-family="sans-serif" font-size="14" lengthAdjust="spacing" textLength="104" x="542" y="63.9951">Count Subjobs</text><ellipse cx="597" cy="35" fill="#E2E2F0" rx="12" ry="12" style="stroke:#181818;stroke-width:0.5;"/><line style="stroke:#181818;stroke-width:0.5;" x1="585" x2="609" y1="49" y2="49"/><text fill="#000000" font-family="sans-serif" font-size="14" lengthAdjust="spacing" textLength="104" x="542" y="828.7451">Count Subjobs</text><ellipse cx="597" cy="848.0469" fill="#E2E2F0" rx="12" ry="12" style="stroke:#181818;stroke-width:0.5;"/><line style="stroke:#181818;stroke-width:0.5;" x1="585" x2="609" y1="862.0469" y2="862.0469"/><text fill="#000000" font-family="sans-serif" font-size="14" lengthAdjust="spacing" textLength="78" x="662" y="63.9951">Merger Job</text><ellipse cx="704" cy="35" fill="#E2E2F0" rx="12" ry="12" style="stroke:#181818;stroke-width:0.5;"/><line style="stroke:#181818;stroke-width:0.5;" x1="692" x2="716" y1="49" y2="49"/><text fill="#000000" font-family="sans-serif" font-size="14" lengthAdjust="spacing" textLength="78" x="662" y="828.7451">Merger Job</text><ellipse cx="704" cy="848.0469" fill="#E2E2F0" rx="12" ry="12" style="stroke:#181818;stroke-width:0.5;"/><line style="stroke:#181818;stroke-width:0.5;" x1="692" x2="716" y1="862.0469" y2="862.0469"/><text fill="#000000" font-family="sans-serif" font-size="14" lengthAdjust="spacing" textLength="83" x="884.5" y="63.9951">File System</text><path d="M911,15 C911,5 929,5 929,5 C929,5 947,5 947,15 L947,41 C947,51 929,51 929,51 C929,51 911,51 911,41 L911,15 " fill="#E2E2F0" style="stroke:#181818;stroke-width:1.5;"/><path d="M911,15 C911,25 929,25 929,25 C929,25 947,25 947,15 " fill="none" style="stroke:#181818;stroke-width:1.5;"/><text fill="#000000" font-family="sans-serif" font-size="14" lengthAdjust="spacing" textLength="83" x="884.5" y="828.7451">File System</text><path d="M911,842.0469 C911,832.0469 929,832.0469 929,832.0469 C929,832.0469 947,832.0469 947,842.0469 L947,868.0469 C947,878.0469 929,878.0469 929,878.0469 C929,878.0469 911,878.0469 911,868.0469 L911,842.0469 " fill="#E2E2F0" style="stroke:#181818;stroke-width:1.5;"/><path d="M911,842.0469 C911,852.0469 929,852.0469 929,852.0469 C929,852.0469 947,852.0469 947,842.0469 " fill="none" style="stroke:#181818;stroke-width:1.5;"/><rect fill="#FFFFFF" height="700.3203" style="stroke:#181818;stroke-width:1.0;" width="10" x="134.5" y="98.4297"/><rect fill="#FFFFFF" height="189.9297" style="stroke:#181818;stroke-width:1.0;" width="10" x="334.5" y="127.5625"/><rect fill="#FFFFFF" height="160.7969" style="stroke:#181818;stroke-width:1.0;" width="10" x="334.5" y="346.625"/><rect fill="#FFFFFF" height="174.7969" style="stroke:#181818;stroke-width:1.0;" width="10" x="334.5" y="536.5547"/><rect fill="#FFFFFF" height="131.6641" style="stroke:#181818;stroke-width:1.0;" width="10" x="493.5" y="156.6953"/><rect fill="#FFFFFF" height="102.5313" style="stroke:#181818;stroke-width:1.0;" width="10" x="592" y="375.7578"/><rect fill="#FFFFFF" height="116.5313" style="stroke:#181818;stroke-width:1.0;" width="10" x="699" y="565.6875"/><rect fill="#FFFFFF" height="73.3984" style="stroke:#181818;stroke-width:1.0;" width="10" x="924" y="185.8281"/><rect fill="#FFFFFF" height="29.1328" style="stroke:#181818;stroke-width:1.0;" width="10" x="924" y="420.0234"/><rect fill="#FFFFFF" height="58.2656" style="stroke:#181818;stroke-width:1.0;" width="10" x="924" y="594.8203"/><rect fill="#FFFFFF" height="29.1328" style="stroke:#181818;stroke-width:1.0;" width="10" x="924" y="740.4844"/><polygon fill="#181818" points="122.5,94.4297,132.5,98.4297,122.5,102.4297,126.5,98.4297" style="stroke:#181818;stroke-width:1.0;"/><line style="stroke:#181818;stroke-width:1.0;" x1="27.5" x2="128.5" y1="98.4297" y2="98.4297"/><text fill="#000000" font-family="sans-serif" font-size="13" lengthAdjust="spacing" textLength="52" x="34.5" y="93.3638">Execute</text><polygon fill="#181818" points="322.5,123.5625,332.5,127.5625,322.5,131.5625,326.5,127.5625" style="stroke:#181818;stroke-width:1.0;"/><line style="stroke:#181818;stroke-width:1.0;" x1="144.5" x2="328.5" y1="127.5625" y2="127.5625"/><text fill="#000000" font-family="sans-serif" font-size="13" lengthAdjust="spacing" textLength="100" x="151.5" y="122.4966">Submit Split Job</text><polygon fill="#181818" points="481.5,152.6953,491.5,156.6953,481.5,160.6953,485.5,156.6953" style="stroke:#181818;stroke-width:1.0;"/><line style="stroke:#181818;stroke-width:1.0;" x1="344.5" x2="487.5" y1="156.6953" y2="156.6953"/><text fill="#000000" font-family="sans-serif" font-size="13" lengthAdjust="spacing" textLength="52" x="351.5" y="151.6294">Execute</text><polygon fill="#181818" points="912,181.8281,922,185.8281,912,189.8281,916,185.8281" style="stroke:#181818;stroke-width:1.0;"/><line style="stroke:#181818;stroke-width:1.0;" x1="503.5" x2="918" y1="185.8281" y2="185.8281"/><text fill="#000000" font-family="sans-serif" font-size="13" lengthAdjust="spacing" textLength="62" x="510.5" y="180.7622">Read PDF</text><polygon fill="#181818" points="514.5,210.9609,504.5,214.9609,514.5,218.9609,510.5,214.9609" style="stroke:#181818;stroke-width:1.0;"/><line style="stroke:#181818;stroke-width:1.0;stroke-dasharray:2.0,2.0;" x1="508.5" x2="923" y1="214.9609" y2="214.9609"/><text fill="#000000" font-family="sans-serif" font-size="13" lengthAdjust="spacing" textLength="101" x="520.5" y="209.895">PDF file content</text><polygon fill="#181818" points="917,255.2266,927,259.2266,917,263.2266,921,259.2266" style="stroke:#181818;stroke-width:1.0;"/><line style="stroke:#181818;stroke-width:1.0;" x1="503.5" x2="923" y1="259.2266" y2="259.2266"/><text fill="#000000" font-family="sans-serif" font-size="13" lengthAdjust="spacing" textLength="127" x="510.5" y="239.0278">Split PDF into pages</text><text fill="#000000" font-family="sans-serif" font-size="13" lengthAdjust="spacing" textLength="119" x="510.5" y="254.1606">and save text files</text><polygon fill="#181818" points="355.5,284.3594,345.5,288.3594,355.5,292.3594,351.5,288.3594" style="stroke:#181818;stroke-width:1.0;"/><line style="stroke:#181818;stroke-width:1.0;stroke-dasharray:2.0,2.0;" x1="349.5" x2="497.5" y1="288.3594" y2="288.3594"/><text fill="#000000" font-family="sans-serif" font-size="13" lengthAdjust="spacing" textLength="125" x="361.5" y="283.2935">Split Job Completed</text><polygon fill="#181818" points="155.5,313.4922,145.5,317.4922,155.5,321.4922,151.5,317.4922" style="stroke:#181818;stroke-width:1.0;"/><line style="stroke:#181818;stroke-width:1.0;stroke-dasharray:2.0,2.0;" x1="149.5" x2="338.5" y1="317.4922" y2="317.4922"/><text fill="#000000" font-family="sans-serif" font-size="13" lengthAdjust="spacing" textLength="125" x="161.5" y="312.4263">Split Job Completed</text><polygon fill="#181818" points="322.5,342.625,332.5,346.625,322.5,350.625,326.5,346.625" style="stroke:#181818;stroke-width:1.0;"/><line style="stroke:#181818;stroke-width:1.0;" x1="144.5" x2="328.5" y1="346.625" y2="346.625"/><text fill="#000000" font-family="sans-serif" font-size="13" lengthAdjust="spacing" textLength="141" x="151.5" y="341.5591">Submit Count Subjobs</text><polygon fill="#181818" points="580,371.7578,590,375.7578,580,379.7578,584,375.7578" style="stroke:#181818;stroke-width:1.0;"/><line style="stroke:#181818;stroke-width:1.0;" x1="344.5" x2="586" y1="375.7578" y2="375.7578"/><text fill="#000000" font-family="sans-serif" font-size="13" lengthAdjust="spacing" textLength="117" x="351.5" y="370.6919">Execute in parallel</text><polygon fill="#181818" points="912,416.0234,922,420.0234,912,424.0234,916,420.0234" style="stroke:#181818;stroke-width:1.0;"/><line style="stroke:#181818;stroke-width:1.0;" x1="602" x2="918" y1="420.0234" y2="420.0234"/><text fill="#000000" font-family="sans-serif" font-size="13" lengthAdjust="spacing" textLength="138" x="609" y="399.8247">Process each text file</text><text fill="#000000" font-family="sans-serif" font-size="13" lengthAdjust="spacing" textLength="142" x="609" y="414.9575">Count "it" occurrences</text><polygon fill="#181818" points="917,445.1563,927,449.1563,917,453.1563,921,449.1563" style="stroke:#181818;stroke-width:1.0;"/><line style="stroke:#181818;stroke-width:1.0;" x1="602" x2="923" y1="449.1563" y2="449.1563"/><text fill="#000000" font-family="sans-serif" font-size="13" lengthAdjust="spacing" textLength="112" x="609" y="444.0903">Save count to file</text><polygon fill="#181818" points="355.5,474.2891,345.5,478.2891,355.5,482.2891,351.5,478.2891" style="stroke:#181818;stroke-width:1.0;"/><line style="stroke:#181818;stroke-width:1.0;stroke-dasharray:2.0,2.0;" x1="349.5" x2="596" y1="478.2891" y2="478.2891"/><text fill="#000000" font-family="sans-serif" font-size="13" lengthAdjust="spacing" textLength="166" x="361.5" y="473.2231">Count Subjobs Completed</text><polygon fill="#181818" points="155.5,503.4219,145.5,507.4219,155.5,511.4219,151.5,507.4219" style="stroke:#181818;stroke-width:1.0;"/><line style="stroke:#181818;stroke-width:1.0;stroke-dasharray:2.0,2.0;" x1="149.5" x2="338.5" y1="507.4219" y2="507.4219"/><text fill="#000000" font-family="sans-serif" font-size="13" lengthAdjust="spacing" textLength="166" x="161.5" y="502.356">Count Subjobs Completed</text><polygon fill="#181818" points="322.5,532.5547,332.5,536.5547,322.5,540.5547,326.5,536.5547" style="stroke:#181818;stroke-width:1.0;"/><line style="stroke:#181818;stroke-width:1.0;" x1="144.5" x2="328.5" y1="536.5547" y2="536.5547"/><text fill="#000000" font-family="sans-serif" font-size="13" lengthAdjust="spacing" textLength="117" x="151.5" y="531.4888">Submit Merger Job</text><polygon fill="#181818" points="687,561.6875,697,565.6875,687,569.6875,691,565.6875" style="stroke:#181818;stroke-width:1.0;"/><line style="stroke:#181818;stroke-width:1.0;" x1="344.5" x2="693" y1="565.6875" y2="565.6875"/><text fill="#000000" font-family="sans-serif" font-size="13" lengthAdjust="spacing" textLength="52" x="351.5" y="560.6216">Execute</text><polygon fill="#181818" points="912,590.8203,922,594.8203,912,598.8203,916,594.8203" style="stroke:#181818;stroke-width:1.0;"/><line style="stroke:#181818;stroke-width:1.0;" x1="709" x2="918" y1="594.8203" y2="594.8203"/><text fill="#000000" font-family="sans-serif" font-size="13" lengthAdjust="spacing" textLength="103" x="716" y="589.7544">Read count files</text><polygon fill="#181818" points="720,619.9531,710,623.9531,720,627.9531,716,623.9531" style="stroke:#181818;stroke-width:1.0;"/><line style="stroke:#181818;stroke-width:1.0;stroke-dasharray:2.0,2.0;" x1="714" x2="923" y1="623.9531" y2="623.9531"/><text fill="#000000" font-family="sans-serif" font-size="13" lengthAdjust="spacing" textLength="119" x="726" y="618.8872">count files content</text><polygon fill="#181818" points="917,649.0859,927,653.0859,917,657.0859,921,653.0859" style="stroke:#181818;stroke-width:1.0;"/><line style="stroke:#181818;stroke-width:1.0;" x1="709" x2="923" y1="653.0859" y2="653.0859"/><text fill="#000000" font-family="sans-serif" font-size="13" lengthAdjust="spacing" textLength="191" x="716" y="648.02">Merge counts into final output</text><polygon fill="#181818" points="355.5,678.2188,345.5,682.2188,355.5,686.2188,351.5,682.2188" style="stroke:#181818;stroke-width:1.0;"/><line style="stroke:#181818;stroke-width:1.0;stroke-dasharray:2.0,2.0;" x1="349.5" x2="703" y1="682.2188" y2="682.2188"/><text fill="#000000" font-family="sans-serif" font-size="13" lengthAdjust="spacing" textLength="142" x="361.5" y="677.1528">Merger Job Completed</text><polygon fill="#181818" points="155.5,707.3516,145.5,711.3516,155.5,715.3516,151.5,711.3516" style="stroke:#181818;stroke-width:1.0;"/><line style="stroke:#181818;stroke-width:1.0;stroke-dasharray:2.0,2.0;" x1="149.5" x2="338.5" y1="711.3516" y2="711.3516"/><text fill="#000000" font-family="sans-serif" font-size="13" lengthAdjust="spacing" textLength="142" x="161.5" y="706.2856">Merger Job Completed</text><polygon fill="#181818" points="912,736.4844,922,740.4844,912,744.4844,916,740.4844" style="stroke:#181818;stroke-width:1.0;"/><line style="stroke:#181818;stroke-width:1.0;" x1="144.5" x2="918" y1="740.4844" y2="740.4844"/><text fill="#000000" font-family="sans-serif" font-size="13" lengthAdjust="spacing" textLength="104" x="151.5" y="735.4185">Read final count</text><polygon fill="#181818" points="155.5,765.6172,145.5,769.6172,155.5,773.6172,151.5,769.6172" style="stroke:#181818;stroke-width:1.0;"/><line style="stroke:#181818;stroke-width:1.0;stroke-dasharray:2.0,2.0;" x1="149.5" x2="928" y1="769.6172" y2="769.6172"/><text fill="#000000" font-family="sans-serif" font-size="13" lengthAdjust="spacing" textLength="71" x="161.5" y="764.5513">Final Count</text><polygon fill="#181818" points="38.5,794.75,28.5,798.75,38.5,802.75,34.5,798.75" style="stroke:#181818;stroke-width:1.0;"/><line style="stroke:#181818;stroke-width:1.0;stroke-dasharray:2.0,2.0;" x1="32.5" x2="138.5" y1="798.75" y2="798.75"/><text fill="#000000" font-family="sans-serif" font-size="13" lengthAdjust="spacing" textLength="83" x="44.5" y="793.6841">Show Output</text><!--SRC=[bLNBRjim4BphAnQwvmTwo2MD2nG84aJeBK2mfZOs2vaKo5KUVvyL6PDKIzdEaTJES6TcIOteM2izec7uuyarOx5nxzIUF3jawvuxvVJ8Y- -_qEom8SEQFw3jna4p_BRR5j13MCaYVRwnaq2wQVlNRdqe2JjV6wdiZjoENAA9ovcdHyOjUe9semU2xiCp7KBDl8xBffarmDLrhNNu0RVlf2Qcfa75-XMPgX9hMA4CQeL4EZw8q2GtaqK_Ofq0ZXOK1wVIP4yg4a0M8f17mXuUVcuofj1PL5wL9mbE8F0oEwIiON4Lre-84cQ0DcnXn1tv9uEc1u-l14pl7AXyqrEjYqnSsdFqHV8zZ0CnzIKy2V-oQJMhCppHwmkpMipUQbxbFERCn1jnnk4mq92XYzbT0Fyr-S5PHTw3jBxFbZwPs5EhkGMhrEGS6QchfdsIlvkZKe5CCfovLz9QiXGcBTofkxsGUowv2_Y-bLv-4bQZIyz4xQxbDoINLMzRT35E_0MthZoqW1ultedJmfU8yV7klMY30zY9nubNyYle2e-oENMdi_XpiPrZEftP_sv6IK7a9MxMcze4aZ1HAxPK-n6-y2UG6ThRDxYFlfOC5TWd]--></g></svg>