<?xml version="1.0" encoding="us-ascii" standalone="no"?><svg xmlns="http://www.w3.org/2000/svg" xmlns:xlink="http://www.w3.org/1999/xlink" contentStyleType="text/css" height="590px" preserveAspectRatio="none" style="width:440px;height:590px;background:#FFFFFF;" version="1.1" viewBox="0 0 440 590" width="440px" zoomAndPan="magnify"><defs/><g><ellipse cx="235.5" cy="20" fill="#222222" rx="10" ry="10" style="stroke:#222222;stroke-width:1.0;"/><rect fill="#F1F1F1" height="33.9688" rx="12.5" ry="12.5" style="stroke:#181818;stroke-width:0.5;" width="210" x="130.5" y="50"/><text fill="#000000" font-family="sans-serif" font-size="12" lengthAdjust="spacing" textLength="190" x="140.5" y="71.1387">Parse command-line arguments</text><polygon fill="#F1F1F1" points="143,103.9688,328,103.9688,340,115.9688,328,127.9688,143,127.9688,131,115.9688,143,103.9688" style="stroke:#181818;stroke-width:0.5;"/><text fill="#000000" font-family="sans-serif" font-size="11" lengthAdjust="spacing" textLength="185" x="143" y="119.7769">"Correct number of arguments?"</text><text fill="#000000" font-family="sans-serif" font-size="11" lengthAdjust="spacing" textLength="21" x="110" y="113.3745">yes</text><text fill="#000000" font-family="sans-serif" font-size="11" lengthAdjust="spacing" textLength="14" x="340" y="113.3745">no</text><rect fill="#F1F1F1" height="33.9688" rx="12.5" ry="12.5" style="stroke:#181818;stroke-width:0.5;" width="220" x="11" y="137.9688"/><text fill="#000000" font-family="sans-serif" font-size="12" lengthAdjust="spacing" textLength="200" x="21" y="159.1074">Assign input and output file paths</text><rect fill="#F1F1F1" height="33.9688" rx="12.5" ry="12.5" style="stroke:#181818;stroke-width:0.5;" width="159" x="270.5" y="137.9688"/><text fill="#000000" font-family="sans-serif" font-size="12" lengthAdjust="spacing" textLength="139" x="280.5" y="159.1074">Print usage instructions</text><ellipse cx="350" cy="202.9375" fill="none" rx="11" ry="11" style="stroke:#222222;stroke-width:1.0;"/><ellipse cx="350" cy="202.9375" fill="#222222" rx="6" ry="6" style="stroke:#222222;stroke-width:1.0;"/><rect fill="#F1F1F1" height="33.9688" rx="12.5" ry="12.5" style="stroke:#181818;stroke-width:0.5;" width="135" x="168" y="233.9375"/><text fill="#000000" font-family="sans-serif" font-size="12" lengthAdjust="spacing" textLength="115" x="178" y="255.0762">Open input text file</text><rect fill="#F1F1F1" height="33.9688" rx="12.5" ry="12.5" style="stroke:#181818;stroke-width:0.5;" width="121" x="175" y="287.9063"/><text fill="#000000" font-family="sans-serif" font-size="12" lengthAdjust="spacing" textLength="101" x="185" y="309.0449">Read file content</text><rect fill="#F1F1F1" height="33.9688" rx="12.5" ry="12.5" style="stroke:#181818;stroke-width:0.5;" width="171" x="150" y="341.875"/><text fill="#000000" font-family="sans-serif" font-size="12" lengthAdjust="spacing" textLength="151" x="160" y="363.0137">Count occurrences of "it"</text><rect fill="#F1F1F1" height="33.9688" rx="12.5" ry="12.5" style="stroke:#181818;stroke-width:0.5;" width="117" x="177" y="395.8438"/><text fill="#000000" font-family="sans-serif" font-size="12" lengthAdjust="spacing" textLength="97" x="187" y="416.9824">Open output file</text><rect fill="#F1F1F1" height="33.9688" rx="12.5" ry="12.5" style="stroke:#181818;stroke-width:0.5;" width="169" x="151" y="449.8125"/><text fill="#000000" font-family="sans-serif" font-size="12" lengthAdjust="spacing" textLength="149" x="161" y="470.9512">Write count to output file</text><rect fill="#F1F1F1" height="33.9688" rx="12.5" ry="12.5" style="stroke:#181818;stroke-width:0.5;" width="150" x="160.5" y="503.7813"/><text fill="#000000" font-family="sans-serif" font-size="12" lengthAdjust="spacing" textLength="130" x="170.5" y="524.9199">Print count to console</text><ellipse cx="235.5" cy="568.75" fill="none" rx="11" ry="11" style="stroke:#222222;stroke-width:1.0;"/><ellipse cx="235.5" cy="568.75" fill="#222222" rx="6" ry="6" style="stroke:#222222;stroke-width:1.0;"/><line style="stroke:#181818;stroke-width:1.0;" x1="235.5" x2="235.5" y1="30" y2="50"/><polygon fill="#181818" points="231.5,40,235.5,50,239.5,40,235.5,44" style="stroke:#181818;stroke-width:1.0;"/><line style="stroke:#181818;stroke-width:1.0;" x1="350" x2="350" y1="171.9375" y2="191.9375"/><polygon fill="#181818" points="346,181.9375,350,191.9375,354,181.9375,350,185.9375" style="stroke:#181818;stroke-width:1.0;"/><line style="stroke:#181818;stroke-width:1.0;" x1="131" x2="121" y1="115.9688" y2="115.9688"/><line style="stroke:#181818;stroke-width:1.0;" x1="121" x2="121" y1="115.9688" y2="137.9688"/><polygon fill="#181818" points="117,127.9688,121,137.9688,125,127.9688,121,131.9688" style="stroke:#181818;stroke-width:1.0;"/><line style="stroke:#181818;stroke-width:1.0;" x1="340" x2="350" y1="115.9688" y2="115.9688"/><line style="stroke:#181818;stroke-width:1.0;" x1="350" x2="350" y1="115.9688" y2="137.9688"/><polygon fill="#181818" points="346,127.9688,350,137.9688,354,127.9688,350,131.9688" style="stroke:#181818;stroke-width:1.0;"/><line style="stroke:#181818;stroke-width:1.0;" x1="121" x2="121" y1="171.9375" y2="218.9375"/><line style="stroke:#181818;stroke-width:1.0;" x1="121" x2="235.5" y1="218.9375" y2="218.9375"/><line style="stroke:#181818;stroke-width:1.0;" x1="235.5" x2="235.5" y1="218.9375" y2="233.9375"/><polygon fill="#181818" points="231.5,223.9375,235.5,233.9375,239.5,223.9375,235.5,227.9375" style="stroke:#181818;stroke-width:1.0;"/><line style="stroke:#181818;stroke-width:1.0;" x1="235.5" x2="235.5" y1="83.9688" y2="103.9688"/><polygon fill="#181818" points="231.5,93.9688,235.5,103.9688,239.5,93.9688,235.5,97.9688" style="stroke:#181818;stroke-width:1.0;"/><line style="stroke:#181818;stroke-width:1.0;" x1="235.5" x2="235.5" y1="267.9063" y2="287.9063"/><polygon fill="#181818" points="231.5,277.9063,235.5,287.9063,239.5,277.9063,235.5,281.9063" style="stroke:#181818;stroke-width:1.0;"/><line style="stroke:#181818;stroke-width:1.0;" x1="235.5" x2="235.5" y1="321.875" y2="341.875"/><polygon fill="#181818" points="231.5,331.875,235.5,341.875,239.5,331.875,235.5,335.875" style="stroke:#181818;stroke-width:1.0;"/><line style="stroke:#181818;stroke-width:1.0;" x1="235.5" x2="235.5" y1="375.8438" y2="395.8438"/><polygon fill="#181818" points="231.5,385.8438,235.5,395.8438,239.5,385.8438,235.5,389.8438" style="stroke:#181818;stroke-width:1.0;"/><line style="stroke:#181818;stroke-width:1.0;" x1="235.5" x2="235.5" y1="429.8125" y2="449.8125"/><polygon fill="#181818" points="231.5,439.8125,235.5,449.8125,239.5,439.8125,235.5,443.8125" style="stroke:#181818;stroke-width:1.0;"/><line style="stroke:#181818;stroke-width:1.0;" x1="235.5" x2="235.5" y1="483.7813" y2="503.7813"/><polygon fill="#181818" points="231.5,493.7813,235.5,503.7813,239.5,493.7813,235.5,497.7813" style="stroke:#181818;stroke-width:1.0;"/><line style="stroke:#181818;stroke-width:1.0;" x1="235.5" x2="235.5" y1="537.75" y2="557.75"/><polygon fill="#181818" points="231.5,547.75,235.5,557.75,239.5,547.75,235.5,551.75" style="stroke:#181818;stroke-width:1.0;"/><!--SRC=[NOuzRiH024RxEGLovIro0RjOHNk0hDAadeon5ya62nXfS_imyUP7wH0Vt-EPP_MKXcjMGoYoRPcdfvKO8UjIDsItCT4CVNSHLImENBTtL93vz-BSdS1loD1_e9qImF1iHWi3yLuT0WbIlOqphGXxzbjGSOsNFSjNuQh43jNoWj4orrgSXECCm5psX3pH7AOlEtvp7Uy7SKp3A-Rfe1TX3wdONQG6KqgfOSu5hKbtvDtumFoHYjMRahTwAxdy2m-_dp2UcBGWDRbF]--></g></svg>