<?xml version="1.0" encoding="us-ascii" standalone="no"?><svg xmlns="http://www.w3.org/2000/svg" xmlns:xlink="http://www.w3.org/1999/xlink" contentStyleType="text/css" height="726px" preserveAspectRatio="none" style="width:470px;height:726px;background:#FFFFFF;" version="1.1" viewBox="0 0 470 726" width="470px" zoomAndPan="magnify"><defs/><g><ellipse cx="235" cy="20" fill="#222222" rx="10" ry="10" style="stroke:#222222;stroke-width:1.0;"/><rect fill="#F1F1F1" height="33.9688" rx="12.5" ry="12.5" style="stroke:#181818;stroke-width:0.5;" width="133" x="168.5" y="50"/><text fill="#000000" font-family="sans-serif" font-size="12" lengthAdjust="spacing" textLength="113" x="178.5" y="71.1387">Import sys module</text><rect fill="#F1F1F1" height="33.9688" rx="12.5" ry="12.5" style="stroke:#181818;stroke-width:0.5;" width="154" x="158" y="103.9688"/><text fill="#000000" font-family="sans-serif" font-size="12" lengthAdjust="spacing" textLength="134" x="168" y="125.1074">Define merge function</text><rect fill="#F1F1F1" height="33.9688" rx="12.5" ry="12.5" style="stroke:#181818;stroke-width:0.5;" width="210" x="130" y="206.3398"/><text fill="#000000" font-family="sans-serif" font-size="12" lengthAdjust="spacing" textLength="190" x="140" y="227.4785">Parse command-line arguments</text><rect fill="#F1F1F1" height="33.9688" rx="12.5" ry="12.5" style="stroke:#181818;stroke-width:0.5;" width="227" x="121.5" y="260.3086"/><text fill="#000000" font-family="sans-serif" font-size="12" lengthAdjust="spacing" textLength="207" x="131.5" y="281.4473">Print type of file_list for debugging</text><rect fill="#F1F1F1" height="33.9688" rx="12.5" ry="12.5" style="stroke:#181818;stroke-width:0.5;" width="293" x="88.5" y="314.2773"/><text fill="#000000" font-family="sans-serif" font-size="12" lengthAdjust="spacing" textLength="273" x="98.5" y="335.416">Read file paths from the first file in file_list_txt</text><rect fill="#F1F1F1" height="33.9688" rx="12.5" ry="12.5" style="stroke:#181818;stroke-width:0.5;" width="165" x="152.5" y="368.2461"/><text fill="#000000" font-family="sans-serif" font-size="12" lengthAdjust="spacing" textLength="145" x="162.5" y="389.3848">Initialize total_count to 0</text><rect fill="#F1F1F1" height="33.9688" rx="12.5" ry="12.5" style="stroke:#181818;stroke-width:0.5;" width="235" x="117.5" y="422.2148"/><text fill="#000000" font-family="sans-serif" font-size="12" lengthAdjust="spacing" textLength="215" x="127.5" y="443.3535">Iterate over each file path in file_list</text><line style="stroke:#181818;stroke-width:1.5;" x1="119" x2="357" y1="476.1836" y2="476.1836"/><rect fill="#F1F1F1" height="33.9688" rx="12.5" ry="12.5" style="stroke:#181818;stroke-width:0.5;" width="216" x="11" y="496.1836"/><text fill="#000000" font-family="sans-serif" font-size="12" lengthAdjust="spacing" textLength="196" x="21" y="517.3223">path A: Open file and read count</text><rect fill="#F1F1F1" height="33.9688" rx="12.5" ry="12.5" style="stroke:#181818;stroke-width:0.5;" width="166" x="36" y="565.1523"/><text fill="#000000" font-family="sans-serif" font-size="12" lengthAdjust="spacing" textLength="146" x="46" y="586.291">Add count to total_count</text><rect fill="#F1F1F1" height="33.9688" rx="12.5" ry="12.5" style="stroke:#181818;stroke-width:0.5;" width="204" x="255" y="530.668"/><text fill="#000000" font-family="sans-serif" font-size="12" lengthAdjust="spacing" textLength="184" x="265" y="551.8066">path B: Handle any exceptions</text><line style="stroke:#181818;stroke-width:1.5;" x1="119" x2="357" y1="619.1211" y2="619.1211"/><rect fill="#F1F1F1" height="33.9688" rx="12.5" ry="12.5" style="stroke:#181818;stroke-width:0.5;" width="248" x="111" y="639.1211"/><text fill="#000000" font-family="sans-serif" font-size="12" lengthAdjust="spacing" textLength="228" x="121" y="660.2598">Open output_file and write total_count</text><polygon fill="#F1F1F1" points="108,157.9375,362,157.9375,374,169.9375,362,181.9375,108,181.9375,96,169.9375,108,157.9375" style="stroke:#181818;stroke-width:0.5;"/><text fill="#000000" font-family="sans-serif" font-size="11" lengthAdjust="spacing" textLength="21" x="239" y="192.1479">yes</text><text fill="#000000" font-family="sans-serif" font-size="11" lengthAdjust="spacing" textLength="254" x="108" y="173.7456">Is the script executed as the main program?</text><text fill="#000000" font-family="sans-serif" font-size="11" lengthAdjust="spacing" textLength="14" x="374" y="167.3433">no</text><ellipse cx="410" cy="169.9375" fill="none" rx="11" ry="11" style="stroke:#222222;stroke-width:1.0;"/><ellipse cx="410" cy="169.9375" fill="#222222" rx="6" ry="6" style="stroke:#222222;stroke-width:1.0;"/><ellipse cx="235" cy="704.0898" fill="none" rx="11" ry="11" style="stroke:#222222;stroke-width:1.0;"/><ellipse cx="235" cy="704.0898" fill="#222222" rx="6" ry="6" style="stroke:#222222;stroke-width:1.0;"/><line style="stroke:#181818;stroke-width:1.0;" x1="235" x2="235" y1="30" y2="50"/><polygon fill="#181818" points="231,40,235,50,239,40,235,44" style="stroke:#181818;stroke-width:1.0;"/><line style="stroke:#181818;stroke-width:1.0;" x1="235" x2="235" y1="83.9688" y2="103.9688"/><polygon fill="#181818" points="231,93.9688,235,103.9688,239,93.9688,235,97.9688" style="stroke:#181818;stroke-width:1.0;"/><line style="stroke:#181818;stroke-width:1.0;" x1="235" x2="235" y1="240.3086" y2="260.3086"/><polygon fill="#181818" points="231,250.3086,235,260.3086,239,250.3086,235,254.3086" style="stroke:#181818;stroke-width:1.0;"/><line style="stroke:#181818;stroke-width:1.0;" x1="235" x2="235" y1="294.2773" y2="314.2773"/><polygon fill="#181818" points="231,304.2773,235,314.2773,239,304.2773,235,308.2773" style="stroke:#181818;stroke-width:1.0;"/><line style="stroke:#181818;stroke-width:1.0;" x1="235" x2="235" y1="348.2461" y2="368.2461"/><polygon fill="#181818" points="231,358.2461,235,368.2461,239,358.2461,235,362.2461" style="stroke:#181818;stroke-width:1.0;"/><line style="stroke:#181818;stroke-width:1.0;" x1="235" x2="235" y1="402.2148" y2="422.2148"/><polygon fill="#181818" points="231,412.2148,235,422.2148,239,412.2148,235,416.2148" style="stroke:#181818;stroke-width:1.0;"/><line style="stroke:#181818;stroke-width:1.0;" x1="119" x2="119" y1="530.1523" y2="565.1523"/><polygon fill="#181818" points="115,555.1523,119,565.1523,123,555.1523,119,559.1523" style="stroke:#181818;stroke-width:1.0;"/><line style="stroke:#181818;stroke-width:1.0;" x1="119" x2="119" y1="477.6836" y2="496.1836"/><polygon fill="#181818" points="115,486.1836,119,496.1836,123,486.1836,119,490.1836" style="stroke:#181818;stroke-width:1.0;"/><line style="stroke:#181818;stroke-width:1.0;" x1="357" x2="357" y1="477.6836" y2="530.668"/><polygon fill="#181818" points="353,520.668,357,530.668,361,520.668,357,524.668" style="stroke:#181818;stroke-width:1.0;"/><line style="stroke:#181818;stroke-width:1.0;" x1="119" x2="119" y1="599.1211" y2="619.1211"/><polygon fill="#181818" points="115,609.1211,119,619.1211,123,609.1211,119,613.1211" style="stroke:#181818;stroke-width:1.0;"/><line style="stroke:#181818;stroke-width:1.0;" x1="357" x2="357" y1="564.6367" y2="619.1211"/><polygon fill="#181818" points="353,609.1211,357,619.1211,361,609.1211,357,613.1211" style="stroke:#181818;stroke-width:1.0;"/><line style="stroke:#181818;stroke-width:1.0;" x1="235" x2="235" y1="456.1836" y2="476.1836"/><polygon fill="#181818" points="231,466.1836,235,476.1836,239,466.1836,235,470.1836" style="stroke:#181818;stroke-width:1.0;"/><line style="stroke:#181818;stroke-width:1.0;" x1="235" x2="235" y1="620.6211" y2="639.1211"/><polygon fill="#181818" points="231,629.1211,235,639.1211,239,629.1211,235,633.1211" style="stroke:#181818;stroke-width:1.0;"/><line style="stroke:#181818;stroke-width:1.0;" x1="235" x2="235" y1="181.9375" y2="206.3398"/><polygon fill="#181818" points="231,196.3398,235,206.3398,239,196.3398,235,200.3398" style="stroke:#181818;stroke-width:1.0;"/><line style="stroke:#181818;stroke-width:1.0;" x1="374" x2="399" y1="169.9375" y2="169.9375"/><polygon fill="#181818" points="389,165.9375,399,169.9375,389,173.9375,393,169.9375" style="stroke:#181818;stroke-width:1.0;"/><line style="stroke:#181818;stroke-width:1.0;" x1="235" x2="235" y1="673.0898" y2="693.0898"/><polygon fill="#181818" points="231,683.0898,235,693.0898,239,683.0898,235,687.0898" style="stroke:#181818;stroke-width:1.0;"/><line style="stroke:#181818;stroke-width:1.0;" x1="235" x2="235" y1="137.9375" y2="157.9375"/><polygon fill="#181818" points="231,147.9375,235,157.9375,239,147.9375,235,151.9375" style="stroke:#181818;stroke-width:1.0;"/><!--SRC=[LP71JiCm38RlVGeVjmCIv-w0XZYm4uWNg4BgT9QIE78SM7bwaXJ6EBMrV__VNpkh4Hs6yHGIYq9UCmIUYyT3BJwXeuWGK1O4Lw9LubWRv61tog1dX6o5aW9Uq1R56SnM3eOY9E55J7ZOjrA4tOfvFm2ChqOoWkKGJ9plV4COMKh0gFdG1K9HGTU4m0uSUPmyPGN70ZE-bsMXk7Jb6vgv2o0PFMTmmg47S2Hje7Lgagl5f1VjWwT8IiRJ5uAo6ZzPBet9SB_r5SLevN-W01fx_gFyCspYd3nfVTQntZ-Ey99m4q7zHP2MiWCEc-mu_tmtu0t_wWPcgHkyyNmSuRbQTSErhjjYQiVe-yAA-CqmTZ8NJKMdQu1F8SN_8FJr1hl8xI9PEGtLXTmmjFTl]--></g></svg>